<svg viewBox="0 0 1004 1008" xmlns="http://www.w3.org/2000/svg" xml:space="preserve" fill-rule="evenodd" clip-rule="evenodd" stroke-linejoin="round" stroke-miterlimit="2">
  <circle cx="610.1" cy="561.03" r="502.38" fill="#6366f1" transform="translate(-109.1 -58.04)"/>
  <path d="M282.07 751.14c-1.8 0-3.62-.38-5.35-1.2l-45.58-21.45a12.58 12.58 0 1 1 10.72-22.8l45.58 21.45a12.59 12.59 0 0 1-5.37 24m91.18 42.9c-1.8 0-3.63-.38-5.37-1.19l-34.18-16.1a12.6 12.6 0 0 1 10.73-22.8l34.19 16.1a12.6 12.6 0 0 1-5.37 23.99m77.36 36.41c-1.8 0-3.63-.38-5.35-1.2l-31.78-14.95a12.59 12.59 0 0 1 10.72-22.8l31.78 14.96a12.6 12.6 0 0 1-5.37 24M815.87 414.8c-6.96 0-12.6-5.63-12.6-12.6v-50.38a12.58 12.58 0 1 1 25.2 0v50.39c0 6.96-5.63 12.59-12.6 12.59m0 75.57c-6.96 0-12.6-5.63-12.6-12.6V440a12.59 12.59 0 1 1 25.2 0v37.79c0 6.96-5.63 12.59-12.6 12.59m0 88.17c-6.96 0-12.6-5.63-12.6-12.6v-37.79a12.58 12.58 0 1 1 25.2 0v37.8c0 6.96-5.63 12.59-12.6 12.59m0 75.57c-6.96 0-12.6-5.63-12.6-12.6v-37.78a12.59 12.59 0 1 1 25.2 0v37.78c0 6.97-5.63 12.6-12.6 12.6M183.97 416.77c-6.97 0-12.6-5.63-12.6-12.6V353.8a12.58 12.58 0 1 1 25.2 0v50.39c0 6.96-5.63 12.6-12.6 12.6m0 75.56c-6.97 0-12.6-5.63-12.6-12.6v-37.78a12.59 12.59 0 1 1 25.2 0v37.79c0 6.96-5.63 12.6-12.6 12.6m0 88.16c-6.97 0-12.6-5.63-12.6-12.6v-37.78a12.58 12.58 0 1 1 25.2 0v37.79c0 6.96-5.63 12.59-12.6 12.59m0 75.57c-6.97 0-12.6-5.63-12.6-12.6V605.7a12.59 12.59 0 1 1 25.2 0v37.79c0 6.96-5.63 12.59-12.6 12.59" fill="#fff"/>
  <path d="M186.11 263.66a37.83 37.83 0 0 0-37.78 37.79 37.83 37.83 0 0 0 37.78 37.78 37.83 37.83 0 0 0 37.79-37.78 37.83 37.83 0 0 0-37.79-37.79m0 100.76a63.05 63.05 0 0 1-62.98-62.97 63.05 63.05 0 0 1 62.98-62.98 63.05 63.05 0 0 1 62.98 62.98 63.05 63.05 0 0 1-62.98 62.97" fill="#fff"/>
  <g transform="translate(-99 -96.97)">
    <clipPath id="a">
      <path d="M537 222.14h126V349H537z"/>
    </clipPath>
    <g clip-path="url(#a)">
      <path d="M600 247.27a37.83 37.83 0 0 0-37.78 37.78A37.83 37.83 0 0 0 600 322.85a37.83 37.83 0 0 0 37.79-37.78A37.83 37.83 0 0 0 600 247.27m0 100.76a63.05 63.05 0 0 1-62.97-62.98A63.05 63.05 0 0 1 600 222.08a63.05 63.05 0 0 1 62.98 62.97A63.05 63.05 0 0 1 600 348.03" fill="#fff"/>
    </g>
  </g>
  <path d="M501 780.07a37.83 37.83 0 0 0-37.8 37.78 37.83 37.83 0 0 0 37.8 37.79 37.83 37.83 0 0 0 37.78-37.78 37.83 37.83 0 0 0-37.79-37.79m0 100.76a63.05 63.05 0 0 1-62.97-62.98 63.05 63.05 0 0 1 62.97-62.97 63.05 63.05 0 0 1 62.98 62.97 63.05 63.05 0 0 1-62.98 62.98M815.87 263.66a37.83 37.83 0 0 0-37.78 37.79 37.83 37.83 0 0 0 37.78 37.78 37.83 37.83 0 0 0 37.79-37.78 37.83 37.83 0 0 0-37.79-37.79m0 100.76a63.05 63.05 0 0 1-62.98-62.97 63.05 63.05 0 0 1 62.98-62.98 63.05 63.05 0 0 1 62.98 62.98 63.05 63.05 0 0 1-62.98 62.97M815.87 654.11a37.83 37.83 0 0 0-37.78 37.78 37.83 37.83 0 0 0 37.78 37.79 37.83 37.83 0 0 0 37.79-37.78 37.83 37.83 0 0 0-37.79-37.79m0 100.76a63.05 63.05 0 0 1-62.98-62.98 63.05 63.05 0 0 1 62.98-62.97 63.05 63.05 0 0 1 62.98 62.97 63.05 63.05 0 0 1-62.98 62.98M186.11 654.11a37.83 37.83 0 0 0-37.78 37.78 37.83 37.83 0 0 0 37.78 37.79 37.83 37.83 0 0 0 37.79-37.78 37.83 37.83 0 0 0-37.79-37.79m0 100.76a63.05 63.05 0 0 1-62.98-62.98 63.05 63.05 0 0 1 62.98-62.97 63.05 63.05 0 0 1 62.98 62.97 63.05 63.05 0 0 1-62.98 62.98M387.63 389.61c-28.42 0-49.06 20.34-49.06 48.4l.17 4.3c-.1 1.69-.17 2.67-.17 3.65v7.94l-7.14 3.41c-27.5 13.18-44.56 41.7-44.56 74.44 0 46.63 34.84 84.58 77.66 84.58h279.43c40.56 0 71.15-31.73 71.15-73.77 0-37.93-24.1-70-57.32-76.27l-10.13-1.9-.13-10.32c-.84-63.31-52-114.83-114.04-114.83-38.33 0-76.87 20.7-98.18 52.73l-6.98 10.5-10.5-6.97c-7.9-5.27-21.01-5.89-30.2-5.89m256.32 251.91H364.52c-56.71 0-102.85-49.23-102.85-109.77 0-39.66 19.63-74.7 51.7-93.36V438c0-41.94 31.94-73.58 74.26-73.58 10.02 0 22.11.64 33.19 4.63 26.9-34.18 69.1-55.01 112.66-55.01 72.52 0 132.86 57.44 138.76 129.93 39.98 12.39 68.05 52.25 68.05 98.58 0 56.41-41.43 98.96-96.34 98.96" fill="#fff"/>
  <path d="M719.92 751.14a12.6 12.6 0 0 1-5.38-24l45.58-21.45a12.6 12.6 0 1 1 10.74 22.8l-45.59 21.45c-1.73.82-3.55 1.2-5.35 1.2m-91.17 42.9a12.6 12.6 0 0 1-5.38-24l34.2-16.08a12.6 12.6 0 0 1 10.71 22.8l-34.18 16.1c-1.74.8-3.57 1.18-5.35 1.18m-77.36 36.41a12.6 12.6 0 0 1-5.38-24l31.77-14.96a12.6 12.6 0 0 1 10.73 22.8l-31.77 14.97c-1.74.81-3.55 1.2-5.35 1.2M579.14 199.53c-1.6 0-3.22-.3-4.78-.94l-27.78-11.44a12.6 12.6 0 0 1 9.59-23.3l27.77 11.44a12.6 12.6 0 0 1-4.8 24.24m81.53 33.57c-1.6 0-3.22-.3-4.8-.94l-34.94-14.4a12.6 12.6 0 0 1-6.85-16.44 12.65 12.65 0 0 1 16.45-6.85l34.94 14.38a12.6 12.6 0 0 1-4.8 24.25m104.82 43.16c-1.6 0-3.2-.31-4.78-.94l-46.6-19.2a12.6 12.6 0 0 1-6.84-16.43 12.63 12.63 0 0 1 16.45-6.86l46.57 19.18a12.61 12.61 0 0 1-4.8 24.25M422.84 199.53a12.6 12.6 0 0 1-4.8-24.24l27.78-11.44a12.6 12.6 0 0 1 9.58 23.3l-27.77 11.44a12.6 12.6 0 0 1-4.79.94m-81.53 33.57a12.6 12.6 0 0 1-4.8-24.25l34.95-14.38c6.4-2.62 13.79.42 16.45 6.85a12.6 12.6 0 0 1-6.86 16.44l-34.93 14.4c-1.58.63-3.2.94-4.8.94m-104.83 43.16a12.61 12.61 0 0 1-4.8-24.25l46.58-19.18a12.6 12.6 0 0 1 9.6 23.29l-46.6 19.2c-1.55.63-3.18.94-4.78.94M268.52 359.26c-2.28 0-4.58-.62-6.66-1.91l-32.04-20.03a12.58 12.58 0 0 1-4.01-17.36 12.61 12.61 0 0 1 17.36-4l32.04 20.02a12.59 12.59 0 0 1-6.69 23.28m68.72 42.95c-2.28 0-4.58-.62-6.66-1.92l-26-16.25a12.59 12.59 0 1 1 13.35-21.35l26 16.24a12.58 12.58 0 0 1-6.69 23.28M732.48 357.58a12.59 12.59 0 0 1-6.12-23.6l33.02-18.36a12.57 12.57 0 0 1 17.12 4.9 12.56 12.56 0 0 1-4.9 17.12l-33.02 18.35a12.4 12.4 0 0 1-6.1 1.59m-80.33 44.63a12.6 12.6 0 0 1-6.13-23.61l36.28-20.16a12.57 12.57 0 0 1 17.13 4.9 12.58 12.58 0 0 1-4.89 17.11l-36.28 20.17a12.47 12.47 0 0 1-6.11 1.59M297.27 617.8a12.58 12.58 0 0 1-7-23.07l2.21-1.48a12.6 12.6 0 1 1 13.97 20.96l-2.2 1.47a12.62 12.62 0 0 1-6.98 2.12m-73.35 48.9a12.58 12.58 0 0 1-7-23.07l31.43-20.96a12.6 12.6 0 0 1 13.98 20.96l-31.45 20.96a12.57 12.57 0 0 1-6.96 2.12M720.97 634.78c-3.23 0-6.45-1.23-8.9-3.7l-18.46-18.44a12.59 12.59 0 1 1 17.81-17.81l18.45 18.45a12.58 12.58 0 0 1-8.9 21.5m44.52 44.52a12.5 12.5 0 0 1-8.9-3.68l-17.81-17.82a12.58 12.58 0 0 1 0-17.8 12.58 12.58 0 0 1 17.8 0l17.82 17.8a12.58 12.58 0 0 1-8.9 21.5M523.24 364.83s-8.4 36.52 12.6 69.16c21.02 32.64 92.76 96.96-8.72 156.75 0 0 21.5-30.54 10.67-51.39-10.83-20.84-34.1-36.36-30.22-69 0 0-30.7 12.77-17.13 70.61 0 0-17.29-6.3-24.57-23.34 0 0-10.74 33.44 8.97 72.55 0 0-104.22-49.7-20.2-146.24 0 0 1.78 31.51 14.23 40.24 0 0-20.53-85.32 54.37-119.34Z" fill="#fff"/>
</svg>